<?xml version="1.0" encoding="utf-8"?>
<!-- Generator: Adobe Illustrator 27.7.0, SVG Export Plug-In . SVG Version: 6.00 Build 0)  -->
<svg version="1.1" id="레이어_1" xmlns="http://www.w3.org/2000/svg" xmlns:xlink="http://www.w3.org/1999/xlink" x="0px"
	 y="0px" viewBox="0 0 280 280" style="enable-background:new 0 0 280 280;" xml:space="preserve">
<style type="text/css">
	.st0{fill:#05B985;}
	.st1{fill:#00876D;}
	.st2{fill:#E9EAF4;}
	.st3{fill:#8D6BE2;}
	.st4{fill:#3D3D59;}
	.st5{fill:#E8EAF6;}
	.st6{fill:#326CF9;}
	.st7{fill:#354F84;}
	.st8{fill:#21363F;}
	.st9{fill:#142026;}
</style>
<g>
	<path class="st0" d="M258.5,279.5h-237c-11.6,0-21-9.4-21-21v-237c0-11.6,9.4-21,21-21h237c11.6,0,21,9.4,21,21v237
		C279.5,270.1,270.1,279.5,258.5,279.5z"/>
	<g>
		<path class="st1" d="M145.3,58.3c-27.6,0-57.2,18.3-57.2,58.4c0,38.5,28.8,58.6,57.2,58.6c11.3,0,22.1-3,31.1-8.5
			c-1.6,21.5-17.4,29.2-31.1,29.2c-7.3,0-13,5.7-13,12.9c0,7.3,5.7,12.9,13,12.9c27.6,0,57.2-18.3,57.2-58.6v-46.6
			C202.5,76.5,172.8,58.3,145.3,58.3z M145.3,149.4c-14.4,0-31.2-8.6-31.2-32.7c0-24,16.1-32.5,31.2-32.5s31.2,8.5,31.2,32.5
			C176.5,140.8,160.4,149.4,145.3,149.4z"/>
		<path class="st2" d="M135.2,57.6c-27.8,0-57.7,18.4-57.7,58.9c0,38.8,29,59.1,57.7,59.1c11.4,0,22.2-3,31.4-8.6
			c-1.6,21.6-17.6,29.4-31.4,29.4c-7.4,0-13.1,5.7-13.1,13s5.8,13,13.1,13c27.8,0,57.7-18.5,57.7-59.1v-47
			C193,76,163,57.6,135.2,57.6z M135.2,149.4c-14.5,0-31.5-8.6-31.5-33c0-24.2,16.3-32.8,31.5-32.8s31.5,8.6,31.5,32.8
			C166.7,140.8,150.5,149.4,135.2,149.4z"/>
	</g>
</g>
<g>
	<path class="st3" d="M-41.5,279.5h-237c-11.6,0-21-9.4-21-21v-237c0-11.6,9.4-21,21-21h237c11.6,0,21,9.4,21,21v237
		C-20.5,270.1-29.9,279.5-41.5,279.5z"/>
	<g>
		<path class="st4" d="M-154.7,58.3c-27.6,0-57.2,18.3-57.2,58.4c0,38.5,28.8,58.6,57.2,58.6c11.3,0,22.1-3,31.1-8.5
			c-1.6,21.5-17.4,29.2-31.1,29.2c-7.3,0-13,5.7-13,12.9c0,7.3,5.7,12.9,13,12.9c27.6,0,57.2-18.3,57.2-58.6v-46.6
			C-97.5,76.5-127.2,58.3-154.7,58.3z M-154.7,149.4c-14.4,0-31.2-8.6-31.2-32.7c0-24,16.1-32.5,31.2-32.5s31.2,8.5,31.2,32.5
			C-123.5,140.8-139.6,149.4-154.7,149.4z"/>
		<path class="st5" d="M-164.8,57.6c-27.8,0-57.7,18.4-57.7,58.9c0,38.8,29,59.1,57.7,59.1c11.4,0,22.2-3,31.4-8.6
			c-1.6,21.6-17.6,29.4-31.4,29.4c-7.4,0-13.1,5.7-13.1,13s5.8,13,13.1,13c27.8,0,57.7-18.5,57.7-59.1v-47
			C-107,76-137,57.6-164.8,57.6z M-164.8,149.4c-14.5,0-31.5-8.6-31.5-33c0-24.2,16.3-32.8,31.5-32.8s31.5,8.6,31.5,32.8
			C-133.3,140.8-149.5,149.4-164.8,149.4z"/>
	</g>
</g>
<g>
	<path class="st6" d="M-341.5,279.5h-237c-11.6,0-21-9.4-21-21v-237c0-11.6,9.4-21,21-21h237c11.6,0,21,9.4,21,21v237
		C-320.5,270.1-329.9,279.5-341.5,279.5z"/>
	<g>
		<path class="st7" d="M-454.7,58.3c-27.6,0-57.2,18.3-57.2,58.4c0,38.5,28.8,58.6,57.2,58.6c11.3,0,22.1-3,31.1-8.5
			c-1.6,21.5-17.4,29.2-31.1,29.2c-7.3,0-13,5.7-13,12.9c0,7.3,5.7,12.9,13,12.9c27.6,0,57.2-18.3,57.2-58.6v-46.6
			C-397.5,76.5-427.2,58.3-454.7,58.3z M-454.7,149.4c-14.4,0-31.2-8.6-31.2-32.7c0-24,16.1-32.5,31.2-32.5
			c15.1,0,31.2,8.5,31.2,32.5C-423.5,140.8-439.6,149.4-454.7,149.4z"/>
		<path class="st5" d="M-464.8,57.6c-27.8,0-57.7,18.4-57.7,58.9c0,38.8,29,59.1,57.7,59.1c11.4,0,22.2-3,31.4-8.6
			c-1.6,21.6-17.6,29.4-31.4,29.4c-7.4,0-13.1,5.7-13.1,13s5.8,13,13.1,13c27.8,0,57.7-18.5,57.7-59.1v-47
			C-407,76-437,57.6-464.8,57.6z M-464.8,149.4c-14.5,0-31.5-8.6-31.5-33c0-24.2,16.3-32.8,31.5-32.8c15.2,0,31.5,8.6,31.5,32.8
			C-433.3,140.8-449.5,149.4-464.8,149.4z"/>
	</g>
</g>
<g>
	<path class="st8" d="M-641.5,279.5h-237c-11.6,0-21-9.4-21-21v-237c0-11.6,9.4-21,21-21h237c11.6,0,21,9.4,21,21v237
		C-620.5,270.1-629.9,279.5-641.5,279.5z"/>
	<g>
		<path class="st9" d="M-754.7,58.3c-27.6,0-57.2,18.3-57.2,58.4c0,38.5,28.8,58.6,57.2,58.6c11.3,0,22.1-3,31.1-8.5
			c-1.6,21.5-17.4,29.2-31.1,29.2c-7.3,0-13,5.7-13,12.9c0,7.3,5.7,12.9,13,12.9c27.6,0,57.2-18.3,57.2-58.6v-46.6
			C-697.5,76.5-727.2,58.3-754.7,58.3z M-754.7,149.4c-14.4,0-31.2-8.6-31.2-32.7c0-24,16.1-32.5,31.2-32.5s31.2,8.5,31.2,32.5
			C-723.5,140.8-739.6,149.4-754.7,149.4z"/>
		<path class="st5" d="M-764.8,57.6c-27.8,0-57.7,18.4-57.7,58.9c0,38.8,29,59.1,57.7,59.1c11.4,0,22.2-3,31.4-8.6
			c-1.6,21.6-17.6,29.4-31.4,29.4c-7.4,0-13.1,5.7-13.1,13s5.8,13,13.1,13c27.8,0,57.7-18.5,57.7-59.1v-47
			C-707,76-737,57.6-764.8,57.6z M-764.8,149.4c-14.5,0-31.5-8.6-31.5-33c0-24.2,16.3-32.8,31.5-32.8s31.5,8.6,31.5,32.8
			C-733.3,140.8-749.5,149.4-764.8,149.4z"/>
	</g>
</g>
</svg>
