<svg xmlns="http://www.w3.org/2000/svg" xmlns:xlink="http://www.w3.org/1999/xlink" width="116" height="36" viewBox="0 0 116 36">
  <defs>
    <clipPath id="clip-path">
      <rect id="사각형_12" data-name="사각형 12" width="116" height="35.715" fill="none"/>
    </clipPath>
    <clipPath id="clip-path-2">
      <path id="패스_36" data-name="패스 36" d="M314.537,125.426l-.316.124-.44.165a2.089,2.089,0,0,1-.77.151,2,2,0,0,1-.7-.179l-.33-.137-.316-.124a3.76,3.76,0,0,0-1.47-.289,4.26,4.26,0,0,0-3.415,1.47,5.468,5.468,0,0,0-1.257,3.683,9.9,9.9,0,0,0,.612,3.4,10.761,10.761,0,0,0,1.807,3.147,3.19,3.19,0,0,0,2.24,1.464,2.709,2.709,0,0,0,.99-.192l.412-.165.33-.124a3.843,3.843,0,0,1,1.264-.247,3.457,3.457,0,0,1,1,.137l.426.179.261.1a4.047,4.047,0,0,0,1.333.316,2.2,2.2,0,0,0,1.3-.508,7.462,7.462,0,0,0,1.519-1.725,9.83,9.83,0,0,0,1.237-2.384,4.649,4.649,0,0,1-1.47-1.079,4.4,4.4,0,0,1-.68-1.148,3.576,3.576,0,0,1-.24-1.333,3.692,3.692,0,0,1,.405-1.711,4.628,4.628,0,0,1,1.532-1.574,4.314,4.314,0,0,0-3.559-1.7,4.82,4.82,0,0,0-1.7.289m1.5-5.092a3.711,3.711,0,0,0-1.677.715,4.2,4.2,0,0,0-1.175,1.367,3.241,3.241,0,0,0-.433,1.532,4.372,4.372,0,0,0,.041.481,3.236,3.236,0,0,0,1.759-.5,3.738,3.738,0,0,0,1.292-1.409,3.667,3.667,0,0,0,.495-1.759q0-.165-.028-.467l-.275.041" transform="translate(-305.522 -120.293)" fill="none"/>
    </clipPath>
    <linearGradient id="linear-gradient" x1="-0.817" y1="1.376" x2="-0.814" y2="1.376" gradientUnits="objectBoundingBox">
      <stop offset="0" stop-color="#dadada"/>
      <stop offset="1" stop-color="#fff"/>
    </linearGradient>
  </defs>
  <g id="button02__appstore_" data-name="button02_(appstore)" transform="translate(-1280 -12)">
    <rect id="bg" width="116" height="36" rx="18" transform="translate(1280 12)" fill="rgba(48,50,54,0.7)"/>
    <g id="appstore" transform="translate(1280 12)">
      <g id="그룹_16" data-name="그룹 16">
        <g id="그룹_15" data-name="그룹 15" clip-path="url(#clip-path)">
          <path id="패스_28" data-name="패스 28" d="M711.207,208.071h1.35l2.923,8.05h-1.311l-.736-2.176h-3.1l-.742,2.176h-1.311Zm-.541,4.87h2.427l-1.2-3.537h-.022Z" transform="translate(-664.287 -195.148)" fill="#fff"/>
          <path id="패스_29" data-name="패스 29" d="M845.384,241.506h1.2v1.01h.028a1.977,1.977,0,0,1,1.835-1.121c1.495,0,2.454,1.172,2.454,3.046v.006c0,1.869-.965,3.046-2.438,3.046a2.016,2.016,0,0,1-1.852-1.1h-.028v2.94h-1.2Zm4.3,2.94v-.006c0-1.25-.6-2.014-1.54-2.014-.915,0-1.556.792-1.556,2.014v.006c0,1.216.647,2.008,1.556,2.008.948,0,1.54-.77,1.54-2.008" transform="translate(-792.878 -226.401)" fill="#fff"/>
          <path id="패스_30" data-name="패스 30" d="M958.509,241.506h1.2v1.01h.028a1.977,1.977,0,0,1,1.835-1.121c1.495,0,2.455,1.172,2.455,3.046v.006c0,1.869-.965,3.046-2.438,3.046a2.016,2.016,0,0,1-1.852-1.1h-.028v2.94h-1.2Zm4.3,2.94v-.006c0-1.25-.6-2.014-1.54-2.014-.915,0-1.556.792-1.556,2.014v.006c0,1.216.647,2.008,1.556,2.008.948,0,1.54-.77,1.54-2.008" transform="translate(-898.977 -226.401)" fill="#fff"/>
          <path id="패스_31" data-name="패스 31" d="M1114.61,211.958l-.005-.084h1.216l.011.072c.112.742.854,1.205,1.93,1.205s1.757-.485,1.757-1.239v-.006c0-.647-.441-1-1.506-1.233l-.876-.184c-1.579-.335-2.343-1.06-2.343-2.254v-.006c.006-1.372,1.216-2.315,2.917-2.315,1.679,0,2.828.915,2.912,2.265l.006.095h-1.216l-.006-.078c-.112-.748-.759-1.2-1.713-1.2-1,.006-1.635.48-1.635,1.183v.006c0,.6.457.971,1.461,1.188l.882.184c1.662.351,2.376,1.026,2.376,2.27v.006c0,1.467-1.16,2.4-3.068,2.4-1.807,0-3-.859-3.1-2.276" transform="translate(-1045.377 -193.127)" fill="#fff"/>
          <path id="패스_32" data-name="패스 32" d="M1231.714,224.432v-3.364h-.842v-.96h.842V218.58h1.233v1.529h1.1v.96h-1.1v3.291c0,.6.268.775.775.775a2.515,2.515,0,0,0,.324-.022v.932a4.029,4.029,0,0,1-.614.05c-1.16,0-1.718-.491-1.718-1.662" transform="translate(-1154.423 -205.004)" fill="#fff"/>
          <path id="패스_33" data-name="패스 33" d="M1300.7,244.44v-.011a2.794,2.794,0,1,1,5.568,0v.011a2.8,2.8,0,1,1-5.568,0m4.335,0v-.011c0-1.283-.614-2.025-1.556-2.025-.926,0-1.545.742-1.545,2.025v.011c0,1.3.614,2.042,1.556,2.042s1.545-.748,1.545-2.042" transform="translate(-1219.916 -226.401)" fill="#fff"/>
          <path id="패스_34" data-name="패스 34" d="M1414.543,241.506h1.2v1h.028a1.381,1.381,0,0,1,1.35-1.116,2.33,2.33,0,0,1,.418.045v1.121a1.724,1.724,0,0,0-.541-.067,1.217,1.217,0,0,0-1.255,1.383v3.5h-1.2Z" transform="translate(-1326.687 -226.401)" fill="#fff"/>
          <path id="패스_35" data-name="패스 35" d="M1475.84,244.462v-.006c0-1.835,1.06-3.063,2.706-3.063a2.63,2.63,0,0,1,2.655,2.946v.407h-4.156c.022,1.11.63,1.757,1.59,1.757a1.33,1.33,0,0,0,1.339-.809l.017-.045h1.144l-.011.061a2.4,2.4,0,0,1-2.516,1.78c-1.724,0-2.767-1.177-2.767-3.029m1.222-.569h2.946c-.1-1.015-.669-1.512-1.456-1.512a1.5,1.5,0,0,0-1.49,1.512" transform="translate(-1384.177 -226.401)" fill="#fff"/>
        </g>
      </g>
      <g id="그룹_18" data-name="그룹 18" transform="translate(18.976 7.471)">
        <g id="그룹_17" data-name="그룹 17" clip-path="url(#clip-path-2)">
          <rect id="사각형_13" data-name="사각형 13" width="20.003" height="21.963" transform="translate(-5.788 2.107) rotate(-20)" fill="url(#linear-gradient)"/>
        </g>
      </g>
    </g>
  </g>
</svg>
