<svg width="40" height="40" viewBox="0 0 40 40" fill="none" xmlns="http://www.w3.org/2000/svg">
<circle cx="20" cy="20" r="19.5" fill="white" stroke="#EDEDED"/>
<path d="M15.7441 20.5868H17.7171V28.7097C17.7171 28.8701 17.8471 29 18.0075 29H21.3529C21.5133 29 21.6432 28.8701 21.6432 28.7097V20.6251H23.9115C24.059 20.6251 24.183 20.5144 24.1999 20.3679L24.5444 17.3775C24.5538 17.2952 24.5278 17.2128 24.4727 17.1511C24.4176 17.0893 24.3388 17.0539 24.256 17.0539H21.6434V15.1794C21.6434 14.6143 21.9476 14.3277 22.5478 14.3277C22.6333 14.3277 24.256 14.3277 24.256 14.3277C24.4164 14.3277 24.5463 14.1977 24.5463 14.0374V11.2925C24.5463 11.1321 24.4164 11.0021 24.256 11.0021H21.9018C21.8852 11.0013 21.8483 11 21.794 11C21.3855 11 19.9656 11.0802 18.8441 12.112C17.6014 13.2554 17.7741 14.6244 17.8154 14.8618V17.0539H15.7441C15.5837 17.0539 15.4537 17.1838 15.4537 17.3442V20.2964C15.4537 20.4568 15.5837 20.5868 15.7441 20.5868Z" fill="#AEAEAE"/>
</svg>
