<svg width="40" height="40" viewBox="0 0 40 40" fill="none" xmlns="http://www.w3.org/2000/svg">
<circle cx="20" cy="20" r="19.5" fill="white" stroke="#EDEDED"/>
<path d="M30.5118 15.2079C30.2555 14.2587 29.5163 13.5154 28.5686 13.2615C27.2956 12.7693 14.9656 12.5281 11.3889 13.2756C10.4412 13.5323 9.69905 14.2728 9.44558 15.222C8.87104 17.7468 8.82739 23.2052 9.45966 25.7864C9.71595 26.7356 10.4552 27.4789 11.4029 27.7328C13.9236 28.3139 25.9071 28.3957 28.5826 27.7328C29.5303 27.4761 30.2724 26.7356 30.5259 25.7864C31.1385 23.036 31.1821 17.916 30.5118 15.2079Z" fill="#AEAEAE"/>
<path d="M23.6667 20.4997L17.8 17.1997V23.7997L23.6667 20.4997Z" fill="white"/>
</svg>
