<svg width="135" height="36" viewBox="0 0 135 36" fill="none" xmlns="http://www.w3.org/2000/svg">
<g clip-path="url(#clip0_27_22)">
<path d="M12.4739 10.368C12.1319 10.368 11.8169 10.215 11.5919 9.96296C11.3489 9.68396 11.0609 9.46796 10.7189 9.28796C10.2239 9.03596 9.64787 8.90996 8.97287 8.90996C7.73087 8.90996 6.75887 9.31496 6.04787 10.116C5.33687 10.917 4.97687 11.997 4.97687 13.356C4.97687 14.877 5.35487 16.038 6.11987 16.83C6.88487 17.622 7.99187 18.018 9.44087 18.018C9.58487 18.018 9.72887 18.018 9.86387 18C11.3219 17.883 11.1869 15.678 9.71987 15.678H9.35087C8.71187 15.678 8.18987 15.156 8.18987 14.517V13.302C8.18987 12.663 8.71187 12.141 9.35087 12.141H16.2089C16.8479 12.141 17.3699 12.663 17.3699 13.302V16.659C17.3699 16.821 17.3429 16.983 17.2709 17.136C16.8929 17.991 16.3619 18.792 15.6779 19.539C14.9309 20.358 13.9949 21.033 12.8519 21.555C11.7179 22.086 10.4219 22.347 8.96387 22.347C7.19087 22.347 5.62487 21.969 4.25687 21.204C2.88887 20.439 1.83587 19.377 1.09787 18.018C0.350873 16.659 -0.0181274 15.093 -0.0181274 13.338C-0.0181274 11.583 0.350873 10.044 1.09787 8.68496C1.84487 7.32596 2.88887 6.25496 4.24787 5.49896C5.60687 4.73396 7.16387 4.35596 8.93687 4.35596C11.1599 4.35596 13.0049 4.89596 14.4539 5.95796C15.4619 6.69596 16.1999 7.62296 16.6769 8.73896C17.0009 9.50396 16.4249 10.35 15.5969 10.35H12.4469L12.4739 10.368Z" fill="#323031"/>
<path d="M39.042 8.69375C39.771 7.33475 40.806 6.26375 42.138 5.50775C43.479 4.74275 45.018 4.36475 46.755 4.36475C48.96 4.36475 50.823 4.95875 52.326 6.13775C52.632 6.38075 52.911 6.63275 53.172 6.90275C54.621 8.42375 53.532 10.9437 51.435 10.9437H51.192C50.481 10.9437 49.842 10.5927 49.383 10.0617C49.167 9.80975 48.915 9.59375 48.636 9.41375C48.078 9.06275 47.43 8.88275 46.692 8.88275C45.558 8.88275 44.649 9.28775 43.965 10.0977C43.29 10.9077 42.948 11.9967 42.948 13.3467C42.948 14.6967 43.29 15.8127 43.965 16.6227C44.64 17.4327 45.549 17.8377 46.692 17.8377C47.43 17.8377 48.078 17.6577 48.636 17.3067C48.915 17.1267 49.167 16.9197 49.383 16.6587C49.842 16.1187 50.49 15.7767 51.192 15.7767H51.435C53.532 15.7767 54.621 18.2967 53.172 19.8177C52.911 20.0877 52.632 20.3487 52.326 20.5827C50.823 21.7617 48.96 22.3557 46.755 22.3557C45.018 22.3557 43.479 21.9777 42.138 21.2127C40.797 20.4477 39.762 19.3857 39.042 18.0267C38.313 16.6677 37.953 15.1017 37.953 13.3467C37.953 11.5917 38.313 10.0527 39.042 8.69375Z" fill="#323031"/>
<path d="M71.271 7.00192V19.7729C71.271 21.1319 70.173 22.2299 68.814 22.2299C67.455 22.2299 66.357 21.1319 66.357 19.7729V17.5859C66.357 16.2269 65.259 15.1289 63.9 15.1289H62.82C61.461 15.1289 60.363 16.2269 60.363 17.5859V19.7729C60.363 21.1319 59.265 22.2299 57.906 22.2299C56.547 22.2299 55.449 21.1319 55.449 19.7729V7.00192C55.449 5.64292 56.547 4.54492 57.906 4.54492C59.265 4.54492 60.363 5.64292 60.363 7.00192V8.72992C60.363 10.0889 61.461 11.1869 62.82 11.1869H63.9C65.259 11.1869 66.357 10.0889 66.357 8.72992V7.00192C66.357 5.64292 67.455 4.54492 68.814 4.54492C70.173 4.54492 71.271 5.64292 71.271 7.00192Z" fill="#323031"/>
<path d="M79.002 7.00192V19.7729C79.002 21.1319 77.904 22.2299 76.545 22.2299C75.186 22.2299 74.088 21.1319 74.088 19.7729V7.00192C74.088 5.64292 75.186 4.54492 76.545 4.54492C77.904 4.54492 79.002 5.64292 79.002 7.00192Z" fill="#323031"/>
<path d="M34.245 7.1279C33.687 6.3989 33.03 5.7689 32.283 5.2739C31.536 4.7789 30.798 4.4279 30.078 4.2209C28.746 3.8519 27.36 3.8069 26.019 4.1399C25.398 4.2929 24.759 4.5269 24.111 4.8239C23.472 5.1209 22.878 5.5439 22.329 6.0749C21.78 6.6149 21.276 7.2539 20.844 7.9649C20.412 8.6759 20.061 9.5489 19.8 10.5749C19.539 11.6099 19.404 12.7619 19.404 13.9949C19.404 15.4439 19.44 16.6499 19.503 17.5859C19.566 18.5219 19.656 19.3319 19.773 19.9889C19.881 20.6099 20.052 21.0869 20.277 21.3929C20.493 21.6989 20.745 21.9149 21.024 22.0319C21.312 22.1579 21.699 22.2299 22.167 22.2299C23.301 22.2299 24.093 22.0319 24.534 21.6449C24.975 21.2579 25.173 20.6459 25.173 19.8089V19.5209C25.173 18.6929 25.839 18.0269 26.667 18.0269H28.935C29.745 18.0269 30.393 18.6839 30.393 19.4849V19.8089C30.393 20.6549 30.609 21.2669 31.032 21.6449C31.455 22.0229 32.265 22.2299 33.399 22.2299C34.173 22.2299 34.74 22.0319 35.091 21.6449C35.46 21.2309 35.73 20.4659 35.901 19.3589C36.072 18.2069 36.162 16.4069 36.162 13.9949C36.162 12.5189 35.982 11.1779 35.622 9.9899C35.262 8.8109 34.803 7.8479 34.245 7.1099V7.1279ZM27.783 14.5619C26.064 14.5619 24.66 13.1669 24.66 11.4389C24.66 9.71091 26.055 8.3159 27.783 8.3159C29.511 8.3159 30.906 9.71091 30.906 11.4389C30.906 13.1669 29.511 14.5619 27.783 14.5619Z" fill="#323031"/>
<path d="M100.242 5.35479C100.242 6.43479 99.369 7.31679 98.28 7.31679H97.479C96.399 7.31679 95.517 8.18979 95.517 9.27879V19.1428C95.517 20.2228 94.644 21.1048 93.555 21.1048H92.547C91.467 21.1048 90.585 20.2318 90.585 19.1428V9.26979C90.585 8.18979 89.712 7.30779 88.623 7.30779H87.867C86.787 7.30779 85.905 6.43479 85.905 5.34579C85.905 4.26579 86.778 3.38379 87.867 3.38379H98.253C99.333 3.38379 100.215 4.25679 100.215 5.34579L100.242 5.35479Z" fill="#323031"/>
<path d="M115.614 6.29099C115.056 5.56199 114.399 4.93199 113.652 4.43699C112.905 3.94199 112.167 3.59099 111.447 3.38399C110.115 3.01499 108.729 2.96999 107.388 3.30299C106.767 3.45599 106.128 3.68999 105.48 3.98699C104.841 4.28399 104.247 4.70699 103.698 5.23799C103.149 5.77799 102.645 6.41699 102.213 7.12799C101.781 7.83899 101.43 8.71199 101.169 9.73799C100.908 10.773 100.773 11.925 100.773 13.158C100.773 14.607 100.809 15.813 100.872 16.749C100.935 17.685 101.025 18.495 101.142 19.152C101.25 19.773 101.421 20.25 101.646 20.556C101.862 20.862 102.114 21.078 102.393 21.195C102.681 21.321 103.068 21.393 103.536 21.393C104.67 21.393 105.462 21.195 105.903 20.808C106.344 20.421 106.542 19.809 106.542 18.972V18.684C106.542 17.856 107.208 17.19 108.036 17.19H110.304C111.114 17.19 111.762 17.847 111.762 18.648V18.972C111.762 19.818 111.978 20.43 112.401 20.808C112.824 21.186 113.634 21.393 114.768 21.393C115.542 21.393 116.109 21.195 116.46 20.808C116.829 20.394 117.099 19.629 117.27 18.522C117.441 17.37 117.531 15.57 117.531 13.158C117.531 11.682 117.351 10.341 116.991 9.15299C116.631 7.97399 116.172 7.01099 115.614 6.27299V6.29099ZM109.152 13.725C107.433 13.725 106.029 12.33 106.029 10.602C106.029 8.87399 107.424 7.47899 109.152 7.47899C110.88 7.47899 112.275 8.87399 112.275 10.602C112.275 12.33 110.88 13.725 109.152 13.725Z" fill="#323031"/>
<path d="M99.639 1.323C100.422 1.323 101.25 1.341 102.105 1.368H102.132H102.159H102.258C110.826 1.368 113.634 4.23 117.261 8.946C117.657 9.468 118.161 10.44 118.53 11.151C118.62 11.322 118.701 11.484 118.782 11.637C119.628 13.257 120.942 13.554 122.103 13.815C122.265 13.851 122.445 13.887 122.616 13.932C123.939 14.319 125.127 14.706 126.585 15.255L126.657 15.282L126.729 15.3C131.139 16.398 131.787 21.411 131.859 23.508C131.859 23.589 131.859 23.643 131.859 23.67C131.931 24.588 131.733 25.317 131.292 25.803C130.806 26.325 130.113 26.433 129.609 26.433C129.582 26.433 129.555 26.433 129.519 26.433C128.097 22.509 125.271 20.358 121.482 20.349C118.773 20.349 115.254 21.438 113.445 26.442H112.401H109.827H107.253C105.381 26.442 103.167 26.442 100.863 26.46C99.864 22.824 96.687 20.376 92.916 20.358H92.88C89.01 20.358 85.77 22.797 84.762 26.451C83.745 26.433 83.025 26.208 82.62 25.794C82.224 25.38 82.035 24.678 82.071 23.688C82.206 19.413 82.656 13.851 84.942 8.73C86.355 5.553 88.119 3.609 90.504 2.619L90.576 2.592C91.314 2.286 93.555 1.341 99.657 1.341M99.657 0.018C93.105 0.018 90.765 1.089 90 1.404C86.886 2.709 85.05 5.247 83.736 8.199C81.549 13.113 80.928 18.351 80.757 23.652C80.667 26.451 82.053 27.765 84.87 27.783H84.888C85.518 27.783 85.824 27.657 86.013 26.937C86.841 23.733 89.595 21.69 92.889 21.69C92.898 21.69 92.916 21.69 92.925 21.69C96.102 21.708 98.829 23.805 99.639 26.946C99.819 27.639 100.125 27.792 100.764 27.792C100.764 27.792 100.782 27.792 100.791 27.792C102.951 27.783 105.111 27.774 107.271 27.774C108.99 27.774 110.7 27.774 112.419 27.774C112.797 27.774 113.184 27.774 113.562 27.774C113.868 27.774 114.165 27.747 114.435 27.738C115.623 23.706 118.008 21.681 121.5 21.681H121.509C124.974 21.681 127.386 23.742 128.538 27.657C128.916 27.729 129.276 27.765 129.618 27.765C131.922 27.765 133.389 26.136 133.191 23.58C133.164 23.175 133.209 15.561 127.053 14.022C125.712 13.527 124.461 13.095 122.967 12.663C121.617 12.33 120.618 12.294 119.961 11.034C119.529 10.215 118.89 8.901 118.323 8.154C114.246 2.853 111.06 0.045 102.258 0.045C102.222 0.045 102.186 0.045 102.15 0.045C101.25 0.009 100.413 0 99.639 0L99.657 0.018Z" fill="#323031"/>
<path d="M92.772 23.463C95.67 23.445 98.046 25.794 98.046 28.683C98.046 31.572 95.661 33.975 92.808 33.957C89.937 33.939 87.534 31.518 87.552 28.665C87.579 25.839 89.937 23.481 92.763 23.463H92.772Z" fill="#323031"/>
<path d="M116.235 28.7372C116.235 25.8122 118.566 23.4632 121.473 23.4722C124.398 23.4722 126.756 25.8392 126.729 28.7372C126.702 31.6082 124.398 33.9302 121.527 33.9662C118.647 34.0022 116.244 31.6262 116.235 28.7372Z" fill="#323031"/>
<path d="M79.056 27.2969H0.0539856V30.8249H79.056V27.2969Z" fill="#323031"/>
<path d="M74.529 29.3487L70.362 29.3217L70.389 28.7637L74.529 28.7907V29.3487ZM66.312 29.3487L62.136 29.3217L62.163 28.7637L66.312 28.7907V29.3487ZM58.086 29.3487L53.919 29.3217L53.946 28.7637L58.086 28.7907V29.3487ZM49.86 29.3487L45.693 29.3217L45.72 28.7637L49.86 28.7907V29.3487ZM41.634 29.3487L37.467 29.3217L37.494 28.7637L41.634 28.7907V29.3487ZM33.417 29.3487L29.241 29.3217L29.268 28.7637L33.417 28.7907V29.3487ZM25.191 29.3487L21.024 29.3217L21.051 28.7637L25.191 28.7907V29.3487ZM16.965 29.3487L12.798 29.3217L12.825 28.7637L16.965 28.7907V29.3487ZM8.73899 29.3487L4.57199 29.3217L4.59899 28.7637L8.72999 28.7907V29.3487H8.73899Z" fill="white"/>
</g>
<defs>
<clipPath id="clip0_27_22">
<rect width="135" height="36" fill="white"/>
</clipPath>
</defs>
</svg>
