<svg xmlns="http://www.w3.org/2000/svg" xmlns:xlink="http://www.w3.org/1999/xlink" width="116" height="36" viewBox="0 0 116 36">
  <defs>
    <clipPath id="clip-path">
      <rect id="사각형_7" data-name="사각형 7" width="116" height="35.715" fill="none"/>
    </clipPath>
    <clipPath id="clip-path-2">
      <path id="패스_23" data-name="패스 23" d="M350.005,150.586l8.022,8.069,2.8-2.789-9.472-5.557a1.022,1.022,0,0,0-.52-.143,1.044,1.044,0,0,0-.833.421" transform="translate(-350.005 -150.165)" fill="none"/>
    </clipPath>
    <linearGradient id="linear-gradient" x1="-1.521" y1="2.11" x2="-1.517" y2="2.11" gradientUnits="objectBoundingBox">
      <stop offset="0" stop-color="#32a071"/>
      <stop offset="0.068" stop-color="#2da771"/>
      <stop offset="0.476" stop-color="#15cf74"/>
      <stop offset="0.801" stop-color="#06e775"/>
      <stop offset="1" stop-color="#00f076"/>
    </linearGradient>
    <clipPath id="clip-path-3">
      <path id="패스_24" data-name="패스 24" d="M346.784,157.555v14.868a1.019,1.019,0,0,0,.183.589l8.039-8-8.022-8.069a1.018,1.018,0,0,0-.2.612" transform="translate(-346.784 -156.943)" fill="none"/>
    </clipPath>
    <linearGradient id="linear-gradient-2" x1="-2.584" y1="1.613" x2="-2.577" y2="1.613" gradientUnits="objectBoundingBox">
      <stop offset="0" stop-color="#00a0ff"/>
      <stop offset="0.007" stop-color="#00a1ff"/>
      <stop offset="0.26" stop-color="#00beff"/>
      <stop offset="0.512" stop-color="#00d2ff"/>
      <stop offset="0.76" stop-color="#00dfff"/>
      <stop offset="1" stop-color="#00e3ff"/>
    </linearGradient>
    <clipPath id="clip-path-4">
      <path id="패스_25" data-name="패스 25" d="M479.163,244.737l2.755,2.771,3.246-1.9a1.031,1.031,0,0,0,0-1.779l-3.2-1.877Z" transform="translate(-479.163 -241.948)" fill="none"/>
    </clipPath>
    <linearGradient id="linear-gradient-3" x1="-4.957" y1="3.024" x2="-4.947" y2="3.024" gradientUnits="objectBoundingBox">
      <stop offset="0" stop-color="#ffe000"/>
      <stop offset="0.409" stop-color="#ffbd00"/>
      <stop offset="0.775" stop-color="orange"/>
      <stop offset="1" stop-color="#ff9c00"/>
    </linearGradient>
    <clipPath id="clip-path-5">
      <path id="패스_26" data-name="패스 26" d="M349.73,294.854a1.032,1.032,0,0,0,1.37.3l9.424-5.529-2.755-2.771Z" transform="translate(-349.73 -286.854)" fill="none"/>
    </clipPath>
    <linearGradient id="linear-gradient-4" x1="-1.473" y1="1.536" x2="-1.469" y2="1.536" gradientUnits="objectBoundingBox">
      <stop offset="0" stop-color="#ff3a44"/>
      <stop offset="1" stop-color="#c31162"/>
    </linearGradient>
  </defs>
  <g id="button01__playstore_" data-name="button01_(playstore)" transform="translate(-1135 -12)">
    <rect id="bg" width="116" height="36" rx="18" transform="translate(1135 12)" fill="rgba(243,244,245,0.7)"/>
    <g id="playstore" transform="translate(1135 12)">
      <g id="그룹_5" data-name="그룹 5">
        <g id="그룹_4" data-name="그룹 4" clip-path="url(#clip-path)">
          <path id="패스_22" data-name="패스 22" d="M686.733,203.138a2.734,2.734,0,0,0-1.934.777,2.76,2.76,0,0,0,.1,3.954,2.794,2.794,0,0,0,3.587.076,2.675,2.675,0,0,0,.972-2.1,2.67,2.67,0,0,0-2.721-2.711m0,4.354a1.647,1.647,0,1,1,1.53-1.643,1.568,1.568,0,0,1-1.53,1.643m-5.936-4.354a2.773,2.773,0,0,0-1.52.443,2.748,2.748,0,0,0-.4,4.208,2.793,2.793,0,0,0,3.578.229,2.671,2.671,0,0,0,1.066-2.17,2.742,2.742,0,0,0-.369-1.395,2.7,2.7,0,0,0-2.353-1.316m0,4.354a1.647,1.647,0,1,1,1.53-1.643,1.568,1.568,0,0,1-1.53,1.643m-7.061-3.522v1.15h2.752a2.4,2.4,0,0,1-.626,1.448,2.817,2.817,0,0,1-2.126.842,3.06,3.06,0,0,1,0-6.12,2.933,2.933,0,0,1,2.074.821l.811-.811a4.012,4.012,0,0,0-2.885-1.16,4.268,4.268,0,0,0-2.175.6,4.164,4.164,0,0,0,.119,7.294,4.265,4.265,0,0,0,2.056.529,3.849,3.849,0,0,0,2.937-1.181,3.8,3.8,0,0,0,1-2.69,3.746,3.746,0,0,0-.062-.719h-3.871Zm28.879.893A2.463,2.463,0,0,0,698.7,203.7a2.717,2.717,0,0,0-.959,2.147,2.653,2.653,0,0,0,2.69,2.711,2.7,2.7,0,0,0,2.259-1.2l-.924-.616a1.548,1.548,0,0,1-1.335.75,1.379,1.379,0,0,1-1.314-.821l3.625-1.5Zm-3.7.9a1.487,1.487,0,0,1,1.417-1.581,1.05,1.05,0,0,1,1.006.575l-1.266.526Zm-2.947,2.629h1.191v-7.968h-1.191Zm-1.951-4.652h-.041a1.879,1.879,0,0,0-1.427-.606,2.536,2.536,0,0,0-1.7.68,2.744,2.744,0,0,0,.279,4.288,2.5,2.5,0,0,0,1.418.454,1.848,1.848,0,0,0,1.427-.616h.041v.39c0,1.037-.554,1.592-1.448,1.592a1.5,1.5,0,0,1-1.366-.965l-1.037.431a2.583,2.583,0,0,0,2.4,1.6c1.4,0,2.578-.821,2.578-2.824V203.3h-1.13Zm-1.366,3.748a1.649,1.649,0,0,1,0-3.286,1.656,1.656,0,0,1,0,3.286m15.54-7.065h-2.85V208.4h1.189v-3.019h1.661a2.723,2.723,0,0,0,2.01-.873,2.425,2.425,0,0,0,.016-3.186,2.72,2.72,0,0,0-2.026-.891m.031,3.84h-1.691v-2.731h1.691a1.366,1.366,0,1,1,0,2.731m7.35-1.144a2.233,2.233,0,0,0-2.122,1.22l1.056.441a1.127,1.127,0,0,1,1.087-.584,1.145,1.145,0,0,1,1.251,1.025v.082a2.631,2.631,0,0,0-1.24-.308,2.886,2.886,0,0,0-1.386.341,1.637,1.637,0,0,0-.218,2.8,2.184,2.184,0,0,0,1.286.4,1.678,1.678,0,0,0,1.517-.779h.041v.615h1.148v-3.055a2.044,2.044,0,0,0-.96-1.824,2.757,2.757,0,0,0-1.46-.38m-.144,4.367c-.39,0-.933-.195-.933-.677,0-.615.677-.851,1.261-.851a2.119,2.119,0,0,1,1.087.267,1.442,1.442,0,0,1-1.415,1.261m6.745-4.193-.564,1.43-.8,2.024h-.041l-1.415-3.455h-1.281l1.024,2.329,1.1,2.5-1.21,2.686h1.24l2.32-5.331.95-2.183Zm-10.712,5.1h1.189v-7.968h-1.189Z" transform="translate(-627.884 -187.709)" fill="#2b3e48"/>
        </g>
      </g>
      <g id="그룹_7" data-name="그룹 7" transform="translate(21.739 9.327)">
        <g id="그룹_6" data-name="그룹 6" clip-path="url(#clip-path-2)">
          <rect id="사각형_8" data-name="사각형 8" width="13.431" height="13.753" transform="translate(-4.164 5.068) rotate(-50.594)" fill="url(#linear-gradient)"/>
        </g>
      </g>
      <g id="그룹_9" data-name="그룹 9" transform="translate(21.538 9.748)">
        <g id="그룹_8" data-name="그룹 8" clip-path="url(#clip-path-3)">
          <rect id="사각형_9" data-name="사각형 9" width="8.317" height="16.116" transform="translate(-0.095 0.001) rotate(-0.338)" fill="url(#linear-gradient-2)"/>
        </g>
      </g>
      <g id="그룹_11" data-name="그룹 11" transform="translate(29.76 15.027)">
        <g id="그룹_10" data-name="그룹 10" clip-path="url(#clip-path-4)">
          <rect id="사각형_10" data-name="사각형 10" width="6.065" height="7.095" transform="translate(-0.433 5.526) rotate(-85.515)" fill="url(#linear-gradient-3)"/>
        </g>
      </g>
      <g id="그룹_13" data-name="그룹 13" transform="translate(21.721 17.816)">
        <g id="그룹_12" data-name="그룹 12" clip-path="url(#clip-path-5)">
          <rect id="사각형_11" data-name="사각형 11" width="13.744" height="13.126" transform="matrix(0.833, -0.553, 0.553, 0.833, -3.958, 2.628)" fill="url(#linear-gradient-4)"/>
        </g>
      </g>
    </g>
  </g>
</svg>
